#!OML:ASF F:\VICON\USERDATA\INSTALL\rory3\rory3.ASF
:FULLY-SPECIFIED
:DEGREES
823
root 0.658308 15.3138 3.60152 8.52261 -47.1552 16.7112
lowerback 3.65133 7.38308 7.00749
upperback 6.71817 10.0128 -4.69939
thorax 7.20293 5.57748 -8.48158
lowerneck 0.632214 -5.55397 -8.04892
upperneck 54.4829 -12.4833 6.16466
head 26.1532 -5.9513 3.05836
rclavicle -2.38542e-015 -1.90833e-014
rhumerus -49.4478 57.5255 -134.353
rradius 91.3769
rwrist -26.627
rhand 26.8108 -25.6481
rfingers 7.12502
rthumb 50.8182 -46.4304
lclavicle -2.38542e-015 -1.90833e-014
lhumerus -11.7862 -75.2591 90.4472
lradius 101.519
lwrist 29.1205
lhand -0.922645 -19.945
lfingers 7.12502
lthumb 24.7064 8.47972
rfemur -68.2411 -7.95445 8.05729
rtibia 90.0617
rfoot -10.7116 -15.0905
rtoes -31.4946
lfemur -57.5946 -22.0677 -30.7282
ltibia 62.2779
lfoot -23.6201 2.68381
ltoes 10.8307
824
root 0.655989 15.3173 3.61272 8.32766 -47.0404 16.9392
lowerback 3.62967 7.37419 6.69263
upperback 6.61854 9.99229 -4.56913
thorax 7.00868 5.52991 -8.17412
lowerneck 0.720293 -5.56937 -8.12138
upperneck 54.585 -12.4636 6.02713
head 26.2228 -5.96965 3.0013
rclavicle -3.89618e-014 1.59028e-015
rhumerus -49.9972 57.2866 -134.56
rradius 91.466
rwrist -26.6506
rhand 26.9655 -25.9147
rfingers 7.12502
rthumb 50.9593 -46.6188
lclavicle -3.89618e-014 1.59028e-015
lhumerus -13.1373 -75.2351 91.9849
lradius 101.511
lwrist 29.2895
lhand -0.617656 -19.7654
lfingers 7.12502
lthumb 24.9986 8.61907
rfemur -68.0486 -8.27789 7.852
rtibia 90.0489
rfoot -10.6984 -14.9001
rtoes -32.0329
lfemur -57.3903 -22.2929 -30.9798
ltibia 62.2346
lfoot -23.6209 3.08623
ltoes 9.98401
825
root 0.659908 15.313 3.59383 8.83684 -46.8686 16.3424
lowerback 3.6532 7.30313 7.21619
upperback 6.59373 9.8997 -4.51768
thorax 7.04215 5.51453 -8.41848
lowerneck 0.617145 -5.54811 -8.09361
upperneck 54.4596 -12.4158 6.06927
head 26.0867 -5.93857 3.01822
rclavicle -7.15625e-014 3.81667e-014
rhumerus -50.3066 57.2157 -134.566
rradius 91.9183
rwrist -26.6427
rhand 26.9799 -26.0841
rfingers 7.12502
rthumb 50.9724 -46.7809
lclavicle -7.15625e-014 3.81667e-014
lhumerus -12.429 -75.2715 91.173
lradius 101.521
lwrist 29.4637
lhand -0.616473 -19.7296
lfingers 7.12502
lthumb 24.9998 8.65467
rfemur -68.1541 -8.15006 8.34133
rtibia 90.0456
rfoot -10.8737 -14.9087
rtoes -31.4213
lfemur -57.6527 -22.2934 -30.4279
ltibia 62.2708
lfoot -23.5109 3.06144
ltoes 9.53667
826
root 0.66767 15.2964 3.55272 9.67472 -46.7937 15.31
lowerback 4.18433 7.29428 7.76263
upperback 6.36621 9.90998 -4.29844
thorax 6.55511 5.51695 -8.5698
lowerneck 0.696302 -5.58177 -8.121
upperneck 54.3909 -12.4333 6.03584
head 25.9484 -5.94995 2.99752
rclavicle 2.46493e-014 -7.63333e-014
rhumerus -50.6173 57.0098 -134.57
rradius 92.0976
rwrist -26.4372
rhand 26.9863 -25.7218
rfingers 7.12502
rthumb 50.9783 -46.4154
lclavicle 2.46493e-014 -7.63333e-014
lhumerus -12.6106 -75.3175 91.4255
lradius 101.487
lwrist 29.619
lhand -0.920103 -19.7554
lfingers 7.12502
lthumb 24.7088 8.66908
rfemur -68.3849 -7.56862 9.04492
rtibia 90.1077
rfoot -12.2575 -14.2528
rtoes -27.1902
lfemur -58.2182 -21.9971 -29.468
ltibia 62.4642
lfoot -23.3691 2.89195
ltoes 8.99169
827
root 0.65749 15.3079 3.58392 8.82918 -47.066 16.3024
lowerback 3.67985 7.34526 7.25895
upperback 6.49915 9.95592 -4.45533
thorax 6.93014 5.53478 -8.37959
lowerneck 0.811492 -5.51385 -8.28739
upperneck 54.3931 -12.2858 6.01373
head 25.8823 -5.93725 3.04912
rclavicle 4.92986e-014 6.04305e-014
rhumerus -50.9147 57.0795 -134.837
rradius 92.0188
rwrist -26.3241
rhand 26.6632 -25.1141
rfingers 7.12502
rthumb 50.6836 -45.9704
lclavicle 4.92986e-014 6.04305e-014
lhumerus -13.3331 -75.0929 92.1809
lradius 101.439
lwrist 29.5967
lhand -1.49803 -19.7021
lfingers 7.12502
lthumb 24.1548 8.79708
rfemur -68.1352 -7.89885 8.2606
rtibia 90.0308
rfoot -11.7525 -14.2189
rtoes -29.6704
lfemur -57.7237 -22.1732 -30.3646
ltibia 62.3785
lfoot -23.5675 3.30489
ltoes 8.93635
828
root 0.653046 15.3121 3.5896 8.59208 -47.2745 16.5598
lowerback 3.47434 7.38172 7.16679
upperback 6.55754 9.99796 -4.51268
thorax 7.11447 5.5609 -8.35459
lowerneck 0.811572 -5.45559 -8.46194
upperneck 54.3345 -12.2107 6.14441
head 25.8562 -5.94084 3.17595
rclavicle -9.30312e-014 5.40694e-014
rhumerus -50.936 57.1935 -134.906
rradius 91.997
rwrist -26.3668
rhand 26.2901 -24.9344
rfingers 7.12502
rthumb 50.3429 -45.9752
lclavicle -9.30312e-014 5.40694e-014
lhumerus -13.1726 -75.0159 91.9947
lradius 101.448
lwrist 29.613
lhand -2.28103 -19.5853
lfingers 7.12502
lthumb 23.4038 9.0116
rfemur -67.9832 -7.88352 7.95696
rtibia 89.9899
rfoot -12.4481 -13.4828
rtoes -28.3662
lfemur -57.6059 -22.2179 -30.5459
ltibia 62.3686
lfoot -23.6424 3.4048
ltoes 9.48634
829
root 0.650368 15.3182 3.58066 8.71769 -47.6405 16.2901
lowerback 3.57457 7.65085 7.26154
upperback 6.64845 10.3641 -4.54311
thorax 7.26516 5.76006 -8.41185
lowerneck 0.588155 -5.65027 -8.25704
upperneck 54.1269 -12.6121 6.3644
head 25.8127 -6.01555 3.17363
rclavicle -1.00983e-013 1.59028e-014
rhumerus -49.7897 57.059 -133.997
rradius 91.9024
rwrist -26.4799
rhand 26.1041 -24.9366
rfingers 7.12502
rthumb 50.1729 -46.0681
lclavicle -1.00983e-013 1.59028e-014
lhumerus -10.9201 -75.6353 89.7188
lradius 101.594
lwrist 30.1136
lhand -2.65202 -19.221
lfingers 7.12502
lthumb 23.0479 9.42074
rfemur -67.9034 -7.50901 8.1034
rtibia 89.8969
rfoot -12.772 -13.2242
rtoes -26.9828
lfemur -57.5804 -21.9155 -30.3347
ltibia 62.3398
lfoot -23.642 3.46541
ltoes 9.76733
830
root 0.652781 15.3166 3.57936 8.75161 -47.4488 16.1869
lowerback 3.44138 7.61645 7.56597
upperback 6.6362 10.3154 -4.53631
thorax 7.37881 5.75881 -8.55698
lowerneck 0.792641 -5.62136 -8.35799
upperneck 53.9663 -12.612 6.56485
head 25.5735 -6.02615 3.3137
rclavicle 5.40694e-014 -3.49861e-014
rhumerus -49.7248 56.9746 -134.01
rradius 91.8
rwrist -26.5821
rhand 26.0266 -24.9616
rfingers 7.12502
rthumb 50.1019 -46.1306
lclavicle 5.40694e-014 -3.49861e-014
lhumerus -10.7467 -75.7629 89.5109
lradius 101.681
lwrist 30.3687
lhand -2.60621 -18.7304
lfingers 7.12502
lthumb 23.0918 9.90589
rfemur -67.8249 -7.78268 8.26841
rtibia 89.8883
rfoot -12.4047 -13.5377
rtoes -28.0999
lfemur -57.5512 -22.093 -30.2367
ltibia 62.3628
lfoot -23.6078 3.56868
ltoes 9.43244
